<?xml version="1.0" encoding="UTF-8"?>
<svg xmlns="http://www.w3.org/2000/svg" xmlns:xlink="http://www.w3.org/1999/xlink" width="356.11pt" height="73.56pt" viewBox="0 0 356.11 73.56" version="1.1">
<defs>
<clipPath id="clip1">
  <path d="M 0 0 L 215 0 L 215 73.558594 L 0 73.558594 Z M 0 0 "/>
</clipPath>
<clipPath id="clip2">
  <path d="M 217 0 L 306 0 L 306 73.558594 L 217 73.558594 Z M 217 0 "/>
</clipPath>
<clipPath id="clip3">
  <path d="M 273 0 L 356.109375 0 L 356.109375 73.558594 L 273 73.558594 Z M 273 0 "/>
</clipPath>
</defs>
<g id="surface1">
<g clip-path="url(#clip1)" clip-rule="nonzero">
<path style=" stroke:none;fill-rule:nonzero;fill:rgb(12.548828%,19.607544%,38.822937%);fill-opacity:1;" d="M 163.445313 34.320313 L 171.605469 34.320313 C 177.777344 34.320313 180.289063 32.542969 180.289063 27.9375 C 180.289063 24.589844 178.195313 23.332031 172.546875 23.332031 L 165.011719 23.332031 Z M 170.871094 57.445313 L 160.09375 57.445313 L 157.792969 73.558594 L 123.890625 73.558594 L 134.25 0 L 186.046875 0 C 205.925781 0 214.714844 7.113281 214.714844 23.125 C 214.714844 35.472656 210.425781 43.632813 201.949219 48.96875 L 211.261719 73.558594 L 175.6875 73.558594 Z M 32.855469 73.558594 L 0 73.558594 L 10.359375 0 L 55.773438 0 L 62.050781 31.601563 L 72.511719 9.941406 C 75.863281 2.929688 80.570313 0 88.417969 0 L 122.738281 0 L 112.382813 73.558594 L 79.523438 73.558594 L 84.441406 42.585938 L 85.800781 35.472656 L 80.882813 45.308594 L 65.710938 73.558594 L 45.621094 73.558594 L 39.238281 45.308594 L 37.355469 35.578125 L 36.726563 42.585938 L 32.855469 73.558594 "/>
</g>
<g clip-path="url(#clip2)" clip-rule="nonzero">
<path style=" stroke:none;fill-rule:nonzero;fill:rgb(94.116211%,32.548523%,28.627014%);fill-opacity:1;" d="M 257.824219 73.558594 L 217.644531 73.558594 L 227.585938 0 L 258.976563 0 L 254.792969 27.3125 L 252.804688 37.144531 L 259.710938 24.695313 L 269.023438 9.417969 C 273.207031 2.617188 277.8125 0 285.867188 0 L 305.332031 0 L 257.824219 73.558594 "/>
</g>
<g clip-path="url(#clip3)" clip-rule="nonzero">
<path style=" stroke:none;fill-rule:nonzero;fill:rgb(94.116211%,32.548523%,28.627014%);fill-opacity:1;" d="M 310.488281 73.558594 L 273.863281 73.558594 L 275.328125 55.769531 L 308.710938 3.242188 L 305.777344 24.695313 L 303.164063 38.613281 L 309.441406 27.3125 L 320.324219 9.417969 C 324.507813 2.617188 329.113281 0 337.171875 0 L 356.109375 0 L 310.488281 73.558594 "/>
</g>
</g>
</svg>
