<svg xmlns="http://www.w3.org/2000/svg" viewBox="0 0 21.73 20.61"><defs><style>.cls-1{fill:#0f1e40;}</style></defs><g id="Layer_2" data-name="Layer 2"><g id="Layer_1-2" data-name="Layer 1"><path class="cls-1" d="M18.55,3a11.08,11.08,0,0,0-7.68-3A11.1,11.1,0,0,0,3.18,3,10,10,0,0,0,0,10.31a9.82,9.82,0,0,0,1.46,5.15L0,20.61l5.43-1.38a11.36,11.36,0,0,0,5.44,1.38,11.08,11.08,0,0,0,7.68-3A9.93,9.93,0,0,0,18.55,3ZM10.87,19.4a10,10,0,0,1-5-1.33l-.23-.14-3.83,1,1-3.62-.15-.23a8.71,8.71,0,0,1-1.41-4.74,9.37,9.37,0,0,1,9.6-9.1,9.36,9.36,0,0,1,9.59,9.1A9.36,9.36,0,0,1,10.87,19.4Z"/><rect class="cls-1" x="10.23" y="14.23" width="1.27" height="1.21"/><path class="cls-1" d="M10.87,5.17a3.11,3.11,0,0,0-3.19,3H9a1.91,1.91,0,0,1,3.82,0,1.77,1.77,0,0,1-.49,1.21l-2.06,2.18V13H11.5v-1l1.74-1.85a2.91,2.91,0,0,0,.81-2A3.11,3.11,0,0,0,10.87,5.17Z"/></g></g></svg>