<svg xmlns="http://www.w3.org/2000/svg" viewBox="0 0 19.61 17.11"><defs><style>.cls-1{fill:#0f1e40;}</style></defs><g id="Layer_2" data-name="Layer 2"><g id="Layer_1-2" data-name="Layer 1"><path class="cls-1" d="M19,0H.61A.63.63,0,0,0,0,.66v15.8a.63.63,0,0,0,.61.65H19a.63.63,0,0,0,.61-.65V.66A.64.64,0,0,0,19,0Zm-.62,15.8H1.23V1.32H18.38V15.8Z"/><path class="cls-1" d="M13.34,12.08,7.21,4.19a.6.6,0,0,0-.94,0L.14,12.08A.7.7,0,0,0,.22,13a.58.58,0,0,0,.86-.08L6.74,5.64l5.66,7.29a.58.58,0,0,0,.47.24.54.54,0,0,0,.39-.16A.69.69,0,0,0,13.34,12.08Z"/><path class="cls-1" d="M19.45,14,13.32,6.8a.63.63,0,0,0-.44-.22.61.61,0,0,0-.44.19l-1.84,2a.69.69,0,0,0,0,.93.57.57,0,0,0,.86,0l1.39-1.49,5.69,6.73a.58.58,0,0,0,.46.22.62.62,0,0,0,.41-.17A.69.69,0,0,0,19.45,14Z"/></g></g></svg>