<svg xmlns="http://www.w3.org/2000/svg" viewBox="0 0 97.23 34.6"><defs><style>.cls-1{fill:#fff;}</style></defs><title>Asset 8</title><g id="Layer_2" data-name="Layer 2"><g id="Layer_1-2" data-name="Layer 1"><path class="cls-1" d="M18,27.72c-6,0-8.73-2.93-8.73-5.08a1.81,1.81,0,0,1,.6-1.35,2,2,0,0,1,1.45-.51c2.56,0,1.89,3.69,6.68,3.69,2.45,0,3.89-1.41,3.89-2.74,0-.8-.48-1.71-2.09-2.07l-5.35-1.3C10.17,17.31,9.42,15,9.42,12.9c0-4.41,4.21-6,8.22-6,3.69,0,8.07,2,8.07,4.6,0,1.14-1,1.75-2.14,1.75-2.2,0-1.83-3-6.24-3-2.19,0-3.34,1-3.34,2.36s1.7,1.85,3.2,2.16l3.95.86c4.32.93,5.47,3.36,5.47,5.69,0,3.59-2.89,6.36-8.59,6.36m16.56-7.59A16,16,0,0,0,28.83,4.84,17.41,17.41,0,0,0,15,1.27,10.28,10.28,0,0,0,1.35,4.84a9.37,9.37,0,0,0,0,9.64A15.78,15.78,0,0,0,6,28.8a17.34,17.34,0,0,0,14.92,4.53,10.25,10.25,0,0,0,13.65-3.57,9.33,9.33,0,0,0,0-9.63"/><path id="Shape" class="cls-1" d="M46,22v-2.1a3.78,3.78,0,0,0,.86.57,6.53,6.53,0,0,0,1.06.43A6.91,6.91,0,0,0,49,21.2a7.18,7.18,0,0,0,1,.1,4.11,4.11,0,0,0,2.45-.61A2.3,2.3,0,0,0,53,17.86a2.8,2.8,0,0,0-.74-.83,7.42,7.42,0,0,0-1.12-.73l-1.4-.72c-.5-.26-1-.53-1.48-.82a6.58,6.58,0,0,1-1.19-.91,3.76,3.76,0,0,1-.79-1.14A3.4,3.4,0,0,1,46,11.23a3.44,3.44,0,0,1,.45-1.8,3.91,3.91,0,0,1,1.19-1.27,5.41,5.41,0,0,1,1.68-.75,7.85,7.85,0,0,1,1.93-.24,7.38,7.38,0,0,1,3.26.54v2A5.94,5.94,0,0,0,51,8.78a5.71,5.71,0,0,0-1.16.12,3.5,3.5,0,0,0-1,.4,2.28,2.28,0,0,0-.74.71,1.82,1.82,0,0,0-.28,1.06,2.21,2.21,0,0,0,.21,1,2.51,2.51,0,0,0,.64.77,6.33,6.33,0,0,0,1,.68c.41.22.87.46,1.4.72s1,.55,1.54.86a6.91,6.91,0,0,1,1.29,1,4.31,4.31,0,0,1,.86,1.2,3.38,3.38,0,0,1,.32,1.5,3.75,3.75,0,0,1-.43,1.91A3.59,3.59,0,0,1,53.51,22a5.38,5.38,0,0,1-1.72.7,9.4,9.4,0,0,1-2,.22,6.51,6.51,0,0,1-.88-.06c-.36,0-.72-.1-1.08-.17a9.34,9.34,0,0,1-1-.27A3.28,3.28,0,0,1,46,22"/><polygon class="cls-1" points="65.62 22.64 63.19 22.64 58.42 17.43 58.38 17.43 58.38 22.64 56.65 22.64 56.65 6.56 58.38 6.56 58.38 16.76 58.42 16.76 62.96 11.78 65.23 11.78 60.22 17.02 65.62 22.64"/><path class="cls-1" d="M75.81,11.78l-5,12.61c-.89,2.24-2.14,3.37-3.74,3.37A3.94,3.94,0,0,1,66,27.62V26.06a3.29,3.29,0,0,0,1,.19,2.15,2.15,0,0,0,2-1.57l.86-2.06L65.61,11.78h1.92l2.92,8.36c0,.11.11.38.22.83h.06q.06-.25.21-.81L74,11.78Z"/><path class="cls-1" d="M78.91,16.91v1.54a3.33,3.33,0,0,0,.87,2.33,3.19,3.19,0,0,0,2.44.95,3.14,3.14,0,0,0,2.31-1.23,5.63,5.63,0,0,0,.91-3.42,4.47,4.47,0,0,0-.85-2.89,2.8,2.8,0,0,0-2.3-1,3.08,3.08,0,0,0-2.46,1.07,3.9,3.9,0,0,0-.93,2.69m0,4.45h0V28H77.15V11.92H78.9v1.94h0a4.17,4.17,0,0,1,3.8-2.19,4,4,0,0,1,3.31,1.49,6.16,6.16,0,0,1,1.19,4,6.89,6.89,0,0,1-1.34,4.44,4.46,4.46,0,0,1-3.67,1.67,3.69,3.69,0,0,1-3.29-1.86"/><path class="cls-1" d="M95.44,16.17a3.58,3.58,0,0,0-.72-2.34,2.46,2.46,0,0,0-2-.84,2.76,2.76,0,0,0-2.08.86,4,4,0,0,0-1,2.3Zm1.77,1.48H89.58a4.1,4.1,0,0,0,1,2.8,3.29,3.29,0,0,0,2.55,1,5.31,5.31,0,0,0,3.35-1.2v1.63a6.2,6.2,0,0,1-3.76,1,4.55,4.55,0,0,1-3.6-1.48,6.13,6.13,0,0,1-1.29-4.16,6,6,0,0,1,1.43-4.13,4.58,4.58,0,0,1,3.55-1.6,4.05,4.05,0,0,1,3.28,1.38,5.75,5.75,0,0,1,1.16,3.83Z"/></g></g></svg>