<?xml version="1.0" encoding="utf-8"?>
<!-- Generator: Adobe Illustrator 27.0.1, SVG Export Plug-In . SVG Version: 6.00 Build 0)  -->
<svg version="1.1" id="Layer_1" xmlns="http://www.w3.org/2000/svg" xmlns:xlink="http://www.w3.org/1999/xlink" x="0px" y="0px"
	 viewBox="0 0 175.2 175.6" style="enable-background:new 0 0 175.2 175.6;" xml:space="preserve">
<style type="text/css">
	.st0{fill:#FFFFFF;}
	.st1{fill:none;}
	.st2{fill:url(#SVGID_1_);}
	.st3{fill-rule:evenodd;clip-rule:evenodd;fill:#FFFFFF;}
</style>
<g>
	<path class="st0" d="M5.7,168.6l11.5-41.9c-7.1-12.3-10.8-26.2-10.8-40.4c0-44.6,36.3-80.8,80.8-80.8c21.6,0,41.9,8.4,57.2,23.7
		S168,64.8,168,86.4c0,44.6-36.3,80.8-80.8,80.8h0c-13.5,0-26.8-3.4-38.6-9.8L5.7,168.6z"/>
	<path class="st1" d="M87.2,19.1C50.2,19.1,20,49.3,20,86.3c0,12.6,3.5,25,10.3,35.7l1.6,2.5l-6.8,24.8l25.4-6.7l2.5,1.5
		c10.3,6.1,22.1,9.4,34.2,9.4h0c37,0,67.2-30.1,67.2-67.2c0.1-17.8-7-34.9-19.7-47.5C122.1,26.2,105,19.1,87.2,19.1L87.2,19.1z"/>
	
		<linearGradient id="SVGID_1_" gradientUnits="userSpaceOnUse" x1="86.8401" y1="148.6984" x2="87.5212" y2="33.8664" gradientTransform="matrix(1 0 0 -1 0 175.8898)">
		<stop  offset="0" style="stop-color:#57D163"/>
		<stop  offset="1" style="stop-color:#23B33A"/>
	</linearGradient>
	<path class="st2" d="M87.2,19.1C50.2,19.1,20,49.3,20,86.3c0,12.6,3.5,25,10.3,35.7l1.6,2.5l-6.8,24.8l25.4-6.7l2.5,1.5
		c10.3,6.1,22.1,9.4,34.2,9.4h0c37,0,67.2-30.1,67.2-67.2c0.1-17.8-7-34.9-19.7-47.5C122.1,26.2,105,19.1,87.2,19.1z"/>
	<path class="st3" d="M67,52.5c-1.5-3.4-3.1-3.4-4.5-3.5l-3.9,0c-1.3,0-3.5,0.5-5.4,2.5c-1.9,2-7.1,6.9-7.1,16.8s7.2,19.5,8.2,20.9
		c1,1.3,14,22.4,34.5,30.5c17.1,6.7,20.5,5.4,24.2,5.1c3.7-0.3,11.9-4.9,13.6-9.6s1.7-8.8,1.2-9.6c-0.5-0.8-1.9-1.3-3.9-2.4
		c-2-1-11.9-5.9-13.8-6.6c-1.9-0.7-3.2-1-4.5,1c-1.3,2-5.2,6.6-6.4,7.9s-2.4,1.5-4.4,0.5c-2-1-8.5-3.1-16.2-10
		c-6-5.4-10.1-12-11.2-14c-1.2-2-0.1-3.1,0.9-4.1c0.9-0.9,2-2.4,3-3.5c1-1.2,1.3-2,2-3.4s0.3-2.5-0.2-3.5
		C72.7,66.5,68.8,56.5,67,52.5"/>
</g>
</svg>
